<?xml version="1.0" encoding="UTF-8" standalone="no"?>
<!DOCTYPE svg PUBLIC "-//W3C//DTD SVG 1.1//EN" "http://www.w3.org/Graphics/SVG/1.1/DTD/svg11.dtd">
<svg xmlns="http://www.w3.org/2000/svg" viewBox="0 0 70 50.86">
  <defs>
    <linearGradient id="a" x1="-266.1" y1="414.66" x2="-265.1" y2="414.66" gradientTransform="matrix(70 0 0 -50.86 18627.08 21113.44)" gradientUnits="userSpaceOnUse">
      <stop offset="0" stop-color="#2d388a"/>
      <stop offset="1" stop-color="#00aeef"/>
    </linearGradient>
  </defs>
  <path d="M64.09 19.48a6 6 0 00-6 6 5.52 5.52 0 00.75 2.83L44.7 42.45l-7.33-7.33 8.49-8.4a1.6 1.6 0 000-2.33l-8.4-8.49 4.74-4.75a6.3 6.3 0 003.08.84 6 6 0 10-6-6A6.16 6.16 0 0040 8.74l-5 4.83-8.37-8.49a1.6 1.6 0 00-2.33 0L9 20.31a6.26 6.26 0 00-3-.83 6 6 0 106 6 6.38 6.38 0 00-.67-2.83L25.47 8.49l7.32 7.32-8.57 8.58a1.62 1.62 0 000 2.33l8.49 8.49-4.49 4.41a6.48 6.48 0 00-2.83-.75 6 6 0 106 6 6.19 6.19 0 00-.83-3L35 37.46 43.45 46a1.63 1.63 0 002.33 0L61 30.71a6.23 6.23 0 003 .84 6 6 0 00.08-12.07M27.8 25.55l7.32-7.32 7.33 7.32L35 32.79l-7.2-7.24" fill="url(#a)"/>
</svg>
